<svg width="534" height="668" viewBox="0 0 534 668" fill="none" xmlns="http://www.w3.org/2000/svg">
<path d="M33.667 234H500.334M367 534V434M167 534H167.334M267 534H267.334M267 434H267.334M167 434H167.334M367 334H367.334M267 334H267.334M167 334H167.334M140.334 634H393.667C431.004 634 449.674 634 463.934 626.733C476.477 620.343 486.677 610.143 493.067 597.6C500.334 583.34 500.334 564.67 500.334 527.333V140.667C500.334 103.33 500.334 84.6613 493.067 70.4007C486.677 57.8563 476.477 47.6577 463.934 41.2663C449.674 34 431.004 34 393.667 34H140.334C102.997 34 84.3283 34 70.0677 41.2663C57.5233 47.6577 47.3247 57.8563 40.9333 70.4007C33.667 84.6613 33.667 103.33 33.667 140.667V527.333C33.667 564.67 33.667 583.34 40.9333 597.6C47.3247 610.143 57.5233 620.343 70.0677 626.733C84.3283 634 102.997 634 140.334 634Z" stroke="#E7B973" stroke-width="66.6667" stroke-linecap="round" stroke-linejoin="round"/>
</svg>
