<svg width="2096" height="609" viewBox="0 0 2096 609" fill="none" xmlns="http://www.w3.org/2000/svg">
<path d="M1825.76 421.996C1814.65 389.358 1798.93 357.879 1785.77 325.996C1781.79 316.359 1770.27 300.634 1779.15 291.325C1788.22 281.821 1806.17 293.93 1815.76 298.135C1831.2 304.907 1847.18 310.546 1862.76 317.008C1879.66 324.016 1896.47 332.015 1913.76 337.996C1918.47 327.909 1924.16 318.379 1928.31 307.996C1936.91 286.496 1942.09 263.065 1943.67 239.996C1950.68 137.606 1885.24 36.7417 1784.76 8.7407C1769.18 4.4007 1752.98 0.812703 1736.76 0.0997031C1725.99 -0.374297 1714.65 0.995707 1703.76 0.995707H1633.76H1372.76H512.761H290.761H227.761C216.276 0.995707 205.211 -0.09229 193.761 1.28171C150.866 6.42771 109.386 25.5997 76.8004 53.7457C53.1334 74.1887 33.0835 100.477 20.1387 128.996C-17.7969 212.574 -1.72278 317.499 64.8514 382.166C77.5254 394.477 90.5574 405.854 105.761 414.996C126.756 427.62 148.748 437.276 172.761 442.572C185.103 445.294 198.106 447.555 210.761 447.867C219.96 448.094 229.475 446.996 238.761 446.996H313.761H568.761H1378.76H1658.76H1715.76C1721.71 446.996 1727.88 448.089 1733.76 447.787C1765.03 446.18 1798.56 437.87 1825.76 421.996Z" fill="#E7B973"/>
<path d="M470.761 110.42C462.053 111.567 453.891 112.706 445.761 116.344C441.221 118.375 436.593 121.155 432.761 124.325C405.72 146.695 411.761 184.846 411.761 215.996C411.761 239.09 407.928 265.929 415.851 287.996C430.156 327.837 479.354 333.278 514.761 321.967C536.833 314.917 551.17 297.494 555.146 274.996C556.531 267.16 557.021 255.577 551.342 249.21C544.011 240.99 520.608 241.212 513.319 249.325C507.522 255.777 509.789 267.178 505.765 274.995C497.555 290.943 472.487 290.957 462.399 276.992C456.115 268.292 456.761 258.143 456.761 247.996V195.996C456.761 187.466 455.219 177.191 457.855 168.996C461.307 158.262 470.978 149.132 482.761 149.075C494.267 149.02 505.244 155.855 508.706 166.996C510.337 172.244 508.92 178.084 511.989 182.902C518.141 192.557 539.903 192.34 548.718 186.91C554.146 183.567 555.599 176.946 555.746 170.996C556.019 159.993 553.801 148.439 547.945 138.996C532.675 114.368 497.834 106.855 470.761 110.42Z" fill="white"/>
<path d="M624.761 285.995V207.995V145.995C624.761 138.112 626.929 126.402 624.019 119.01C622.45 115.026 618.568 113.056 614.761 111.695C605.739 108.468 588.978 108.124 582.195 116.184C579.177 119.769 579.761 124.623 579.761 128.995V157.995V273.995V304.995C579.761 310.299 579.131 315.674 582.989 319.887C588.027 325.389 594.929 324.995 601.761 324.995H637.761H682.761C688.511 324.995 695.99 326.347 700.371 321.767C707.799 313.999 708.358 291.309 696.746 286.737C690.601 284.318 681.292 285.995 674.761 285.995H624.761Z" fill="white"/>
<path d="M739.762 110.46C734.641 111.367 728.412 113.058 725.79 118.036C723.752 121.905 724.762 127.761 724.762 131.996V161.996V272.996V302.996C724.762 307.332 723.851 312.987 725.941 316.956C730.647 325.891 746.164 326.107 754.762 324.67C759.741 323.839 765.851 321.538 768.444 316.903C770.656 312.949 769.762 307.356 769.762 302.996V272.996V161.996V131.996C769.762 127.67 770.681 121.994 768.583 118.039C763.845 109.107 748.329 108.943 739.762 110.46Z" fill="white"/>
<path d="M856.761 110.424C849.021 111.533 840.952 113.554 833.761 116.673C829.394 118.567 825.48 121.259 821.765 124.207C794.748 145.647 799.761 183.427 799.761 213.996C799.761 238.161 796.122 265.968 804.827 288.996C819.379 327.492 867.937 333.536 902.761 322.251C926.481 314.564 943.751 294.361 943.761 268.996C943.761 262.497 944.701 254.777 940.111 249.464C932.63 240.81 908.467 241.168 901.195 250.104C895.924 256.58 898.398 267.515 894.279 274.996C885.102 291.66 860.879 290.24 850.319 275.995C843.883 267.313 844.761 253.274 844.761 242.996V199.996C844.761 190.054 844.306 179.776 846.431 169.996C848.982 158.256 859.503 149.09 871.761 149.075C883.732 149.059 894.346 156.517 897.718 167.996C899.127 172.795 897.682 178.664 900.503 182.952C906.62 192.246 928.009 192.542 936.746 187.139C943.151 183.176 943.761 176.801 943.761 169.996C943.761 157.951 942.141 147.211 935.241 136.996C919.22 113.273 883.506 106.593 856.761 110.424Z" fill="white"/>
<path d="M1026.76 241.996C1029.49 249.208 1034.84 255.588 1039.09 261.996C1046.34 272.92 1053.47 283.955 1060.54 294.996C1066.3 303.984 1072.29 316.963 1080.8 323.566C1095.13 334.69 1121.45 319.651 1119.65 301.996C1118.86 294.207 1111.39 286.469 1107.34 279.996C1096.37 262.478 1084.88 245.203 1073.43 227.996C1069.68 222.371 1066.1 216.658 1062.42 210.996C1060.93 208.707 1058.39 205.913 1058.54 202.996C1058.84 197.265 1067.88 189.358 1071.36 184.996L1095.16 154.996C1099.28 149.843 1104.97 144.434 1106.96 137.996C1112.06 121.474 1087.63 102.729 1072.8 112.005C1065.87 116.34 1061.29 126.452 1056.62 132.996C1047.62 145.616 1038.58 158.232 1029.79 170.996C1024.55 178.595 1019.57 187.753 1012.76 193.996V151.996V127.996C1012.76 123.871 1013.28 119.485 1010.44 116.104C1003.67 108.036 986.791 108.633 977.761 111.757C973.621 113.189 969.821 115.65 968.411 120.011C966.941 124.579 967.761 130.254 967.761 134.996V163.996V261.996V297.996C967.761 303.199 966.611 310.066 968.501 314.995C973.331 327.576 997.011 327.67 1006.76 321.771C1016.04 316.153 1012.76 301.362 1012.76 291.996C1012.76 282.432 1010.36 269.114 1013.32 259.996C1015.43 253.521 1022.22 246.939 1026.76 241.996Z" fill="white"/>
<path d="M1238.76 197.996C1242.38 201.971 1244.51 207.276 1247.07 211.996C1252.13 221.336 1257.12 230.743 1262.34 239.996C1265.07 244.848 1267.18 250.922 1271.85 254.293C1278.07 258.778 1289 257.966 1294.43 252.656C1299.24 247.958 1302.32 240.723 1305.76 234.996C1312.21 224.249 1319.46 213.339 1324.76 201.996C1327.37 210.838 1325.76 221.801 1325.76 230.996V286.996C1325.76 296.3 1322.46 312.848 1329.87 319.771C1337.17 326.595 1352.97 326.894 1361.76 323.116C1365.5 321.51 1369.38 319.189 1370.44 314.992C1372.06 308.644 1370.76 300.529 1370.76 293.996V250.996V164.996C1370.76 152.192 1373.24 136.455 1370.23 123.996C1366.28 107.643 1341.06 106.361 1328.76 113.274C1325.42 115.152 1322.64 118.016 1320.28 120.997C1304.85 140.475 1297.56 165.916 1281.76 184.996C1274.7 168.038 1263.73 151.792 1254.36 135.996C1249.82 128.33 1245.5 119.095 1237.76 114.129C1226.46 106.888 1203.38 106.975 1196.33 120C1193.08 125.994 1193.76 133.428 1193.76 139.996V173.996V266.996C1193.76 281.717 1191.5 298.492 1193.98 312.995C1196.3 326.522 1217.61 326.951 1227.76 323.775C1231.2 322.698 1234.92 320.955 1237.02 317.891C1240.2 313.249 1238.76 305.345 1238.76 299.996V255.996V197.996Z" fill="white"/>
<path d="M1448.76 234.995H1483.76C1488.79 234.995 1495.11 235.98 1499.72 233.538C1509.76 228.211 1509.64 206.675 1499.72 201.313C1495.24 198.889 1488.69 199.995 1483.76 199.995H1448.76V162.995C1448.76 159.304 1447.48 152.426 1451.08 150.023C1455.33 147.188 1464.83 148.995 1469.76 148.995H1513.76C1519.7 148.995 1528.17 150.515 1533.72 148.137C1539 145.871 1541.27 139.301 1541.67 133.995C1542.27 125.961 1542 115.412 1533.75 111.174C1530.72 109.623 1527.05 109.996 1523.76 109.995H1503.76H1439.76C1430.24 109.995 1418.27 108.013 1409.78 113.22C1403.61 116.998 1403.76 122.515 1403.76 128.995V159.995V271.995V302.995C1403.76 307.361 1402.87 312.97 1404.94 316.98C1411.1 328.924 1432.86 324.995 1443.76 324.995H1506.76C1514.28 324.995 1526.96 327.414 1533.76 323.967C1542.67 319.448 1543.27 305.511 1541.05 296.995C1537.78 284.466 1527.19 285.995 1516.76 285.995H1469.76C1464.83 285.995 1455.33 287.802 1451.08 284.967C1447.48 282.564 1448.76 275.686 1448.76 271.995V234.995Z" fill="white"/>
<path d="M1787.76 120.569C1778.02 123.327 1779.76 134.126 1779.76 141.996V184.996C1779.76 192.127 1778.86 199.945 1779.97 206.996C1781.13 214.3 1787.87 217.491 1794.75 215.562C1803.85 213.008 1801.76 201.176 1801.76 193.996C1801.76 173.071 1803.98 150.781 1801.65 129.996C1800.88 123.142 1794.47 118.67 1787.76 120.569Z" fill="#414042"/>
<path d="M1665.85 170.854C1659.09 173.802 1657.96 183.503 1662.08 188.996C1666.46 194.85 1672.59 199.83 1677.76 204.996L1707.76 234.996C1712.92 240.158 1719.62 247.793 1727.72 243.538C1734.89 239.767 1734.99 230.751 1730.42 224.996C1717.51 208.755 1700.44 194.656 1685.76 179.996C1680.7 174.947 1673.91 167.342 1665.85 170.854Z" fill="#414042"/>
<path d="M1906.76 170.854C1899.76 173.676 1893.98 181.776 1888.76 186.996L1863.76 211.996C1859.33 216.428 1853.94 220.744 1850.46 225.996C1844.91 234.391 1850.53 247.488 1861.76 244.42C1868.86 242.479 1874.75 234.006 1879.76 228.996L1906.76 201.996C1911.44 197.317 1917.52 192.659 1921.02 186.996C1926.66 177.866 1916.38 166.975 1906.76 170.854Z" fill="#414042"/>
<path d="M1781.78 289.023C1773.56 293.265 1775.83 302.163 1778.56 308.995C1785.53 326.431 1792.97 343.725 1800.34 360.995C1827.87 425.516 1854.24 490.537 1881.91 554.995C1888.55 570.454 1893.89 587.151 1901.88 601.955C1904.91 607.559 1911.69 610.708 1917.74 607.677C1922.4 605.344 1923.79 600.732 1924.76 595.995C1926.51 587.427 1927.39 578.628 1928.84 569.995C1933.17 544.336 1937.4 518.672 1941.68 492.995C1942.9 485.666 1944.08 478.302 1945.37 470.995C1945.9 468.04 1946.06 463.833 1947.77 461.298C1949.47 458.787 1953.01 458.258 1955.76 457.657C1962.02 456.287 1968.4 454.699 1974.76 453.944C1997.8 451.209 2020.94 444.812 2043.76 440.535C2053.44 438.721 2063.1 436.727 2072.76 434.795C2077.88 433.772 2083.93 433.258 2088.76 431.267C2094.06 429.079 2096.6 423.518 2095.48 417.996C2093.92 410.318 2085.05 408.112 2078.76 405.595C2062.01 398.896 2045.43 391.864 2028.76 384.984C1967.86 359.855 1906.93 334.665 1845.76 310.195C1831.04 304.308 1816.45 298.137 1801.76 292.196C1795.85 289.804 1788.19 285.713 1781.78 289.023Z" fill="white"/>
<path d="M1615.78 291.854C1607.17 295.452 1607.73 309.796 1616.76 312.423C1623.1 314.266 1631.21 312.996 1637.76 312.996H1678.76C1685.11 312.996 1695.12 314.847 1700.65 311.138C1707.98 306.225 1705.47 292.819 1696.76 291.224C1690.74 290.122 1683.87 290.996 1677.76 290.996H1639.76C1632.71 290.996 1622.36 289.102 1615.78 291.854Z" fill="#414042"/>
<path d="M1719.76 359.569C1712.42 361.31 1706.83 368.924 1701.76 373.996C1692.91 382.848 1684.47 392.05 1675.75 400.996C1671.09 405.766 1664.94 410.336 1661.36 415.996C1656.4 423.85 1662.11 434.883 1671.76 433.626C1679.26 432.649 1684.77 424.983 1689.76 419.996L1716.76 392.996C1721.76 387.991 1727.9 383.091 1731.61 376.996C1736.92 368.274 1730.38 357.047 1719.76 359.569Z" fill="#414042"/>
</svg>
