<svg width="50" height="41" viewBox="0 0 50 41" fill="none" xmlns="http://www.w3.org/2000/svg">
<path d="M38.32 20.99L36.5 25.33H40.14L38.32 20.99Z" fill="#E7B973"/>
<path d="M22 27.8801V31.1801C22 33.5301 23.91 35.4401 26.26 35.4401H39.08L43.57 39.9301C43.76 40.1201 44.02 40.2201 44.27 40.2201C44.4 40.2201 44.53 40.1901 44.66 40.1401C45.03 39.9901 45.27 39.6201 45.27 39.2201V35.4401H45.74C48.09 35.4401 50 33.5301 50 31.1801V17.0801C50 14.7301 48.09 12.8201 45.74 12.8201H34.1V21.1101C34.1 24.8401 31.06 27.8801 27.32 27.8801H22ZM32.61 29.4601L34.08 25.9501V25.9401L37.4 18.0101C37.55 17.6301 37.92 17.3901 38.32 17.3901C38.72 17.3901 39.09 17.6301 39.24 18.0101L42.56 25.9401L42.57 25.9501L44.03 29.4601C44.25 29.9701 44.01 30.5501 43.5 30.7701C43.37 30.8201 43.24 30.8401 43.11 30.8401C42.72 30.8401 42.35 30.6101 42.19 30.2301L40.98 27.3301H35.66L34.45 30.2301C34.24 30.7401 33.65 30.9801 33.15 30.7701C32.64 30.5601 32.4 29.9701 32.61 29.4601Z" fill="#E7B973"/>
<path d="M18.14 10.76H13.96C14.41 11.66 15.1 12.9 16.05 14.12C17 12.9 17.69 11.66 18.14 10.76Z" fill="#E7B973"/>
<path d="M4.77 25.88H5.47V30.41C5.47 30.82 5.71 31.18 6.08 31.34C6.21 31.39 6.34 31.41 6.47 31.41C6.73 31.41 6.98 31.31 7.17 31.12L12.42 25.88H27.32C29.95 25.88 32.1 23.74 32.1 21.11V4.78C32.1 2.15 29.95 0 27.32 0H4.77C2.14 0 0 2.15 0 4.78V21.1C0 23.74 2.14 25.88 4.77 25.88ZM9.04 8.76H15.05V6.77C15.05 6.22 15.49 5.77 16.05 5.77C16.6 5.77 17.05 6.22 17.05 6.77V8.76H23.06C23.61 8.76 24.06 9.21 24.06 9.76C24.06 10.31 23.61 10.76 23.06 10.76H20.35C19.92 11.76 18.95 13.72 17.4 15.63C18.6 16.79 20.05 17.76 21.76 18.13C22.3 18.25 22.65 18.78 22.53 19.32C22.43 19.79 22.01 20.11 21.55 20.11C21.48 20.11 21.41 20.1 21.34 20.08C19.22 19.62 17.46 18.47 16.05 17.11C14.63 18.47 12.88 19.62 10.76 20.08C10.69 20.1 10.61 20.11 10.54 20.11C10.08 20.11 9.67 19.79 9.57 19.32C9.45 18.78 9.79 18.25 10.33 18.13C12.05 17.75 13.5 16.79 14.69 15.63C13.14 13.73 12.18 11.76 11.74 10.76H9.04C8.48 10.76 8.04 10.31 8.04 9.76C8.04 9.21 8.48 8.76 9.04 8.76Z" fill="#E7B973"/>
</svg>
