<svg width="700" height="700" viewBox="0 0 700 700" fill="none" xmlns="http://www.w3.org/2000/svg">
<path d="M350 700C543.3 700 700 543.3 700 350C700 156.7 543.3 0 350 0C156.7 0 0 156.7 0 350C0 543.3 156.7 700 350 700Z" fill="url(#paint0_linear_30_46)"/>
<path d="M411.17 166.351C418.735 153.147 414.213 136.282 401.07 128.682C387.928 121.082 371.14 125.626 363.575 138.83L350.383 161.861L337.188 138.83C329.623 125.626 312.835 121.082 299.693 128.682C286.55 136.282 282.028 153.147 289.593 166.351L318.7 217.16L226.63 377.873H152.458C137.293 377.873 125 390.223 125 405.458C125 420.693 137.293 433.043 152.458 433.043H410.81C413.075 427.063 415.46 416.803 412.922 407.373C409.11 393.198 395 377.873 371.355 377.873H289.993L411.17 166.351Z" fill="white"/>
<path d="M240.91 463.547C236.225 458.32 225.73 449.967 216.525 447.22C202.492 443.027 191.853 445.657 186.485 447.947L166.033 483.65C158.468 496.852 162.991 513.717 176.134 521.317C189.277 528.917 206.062 524.375 213.627 511.17L240.91 463.547Z" fill="white"/>
<path d="M505.738 433.043H547.543C562.708 433.043 575 420.693 575 405.458C575 390.223 562.708 377.873 547.543 377.873H474.133L391.438 233.528C385.295 239.393 373.518 254.375 371.738 271.363C369.45 293.2 372.88 311.59 383.178 329.598C417.795 390.14 452.468 450.655 487.135 511.17C494.7 524.375 511.485 528.918 524.63 521.318C537.773 513.718 542.295 496.853 534.73 483.65L505.738 433.043Z" fill="white"/>
<defs>
<linearGradient id="paint0_linear_30_46" x1="350" y1="0" x2="350" y2="700" gradientUnits="userSpaceOnUse">
<stop stop-color="#2AC9FA"/>
<stop offset="1" stop-color="#1F65EB"/>
</linearGradient>
</defs>
</svg>
